<svg clip-rule="evenodd" fill-rule="evenodd" stroke-linejoin="round" stroke-miterlimit="1.41421" viewBox="0 0 59 65" xmlns="http://www.w3.org/2000/svg"><path d="m55.201 13.666-22.349-12.836c-2.011-1.107-5.14-1.107-7.151 0l-22.349 12.836c-1.788 1.328-3.352 3.983-3.352 6.196v25.451c0 2.213 1.564 4.868 3.576 5.975l22.348 12.836c2.012 1.106 5.14 1.106 7.152 0l22.348-12.836c2.012-1.107 3.576-3.762 3.576-5.975v-25.451c-.223-2.213-1.788-4.868-3.799-6.196zm-6.034 13.942h-2.235v-3.983c0-2.877-2.235-3.984-6.705-3.984h-.223c-10.727 0-9.834-3.984-10.057-5.533h-.224c-.223 1.549.671 5.533-10.056 5.533h-.224c-4.47 0-6.704.885-6.704 3.984v3.098l36.428 10.401v4.426c0 4.205-2.012 6.64-9.163 6.64h-.447c-5.364 0-8.94 1.106-8.94 5.532h-2.234c0-4.204-3.353-5.532-8.94-5.532-6.928 0-9.163-2.435-9.163-6.64v-3.762h2.235v3.984c0 2.877 2.235 3.983 6.705 3.983h.223c10.727 0 9.834 3.984 10.057 5.533h.223c.224-1.549-.67-5.533 10.057-5.533h.447c4.47 0 6.705-.885 6.705-3.983v-2.213l-36.652-10.623v-5.09c0-4.205 2.012-6.639 9.163-6.639h.447c5.587 0 8.94-1.107 8.94-5.533h2.234c0 4.205 3.353 5.533 8.94 5.533h.223c6.928 0 9.163 2.434 9.163 6.639z" fill="#247fe5" fill-rule="nonzero"/></svg>