<?xml version="1.0" encoding="UTF-8" standalone="no"?><!DOCTYPE svg PUBLIC "-//W3C//DTD SVG 1.1//EN" "http://www.w3.org/Graphics/SVG/1.1/DTD/svg11.dtd"><svg width="100%" height="100%" viewBox="0 0 175 65" version="1.1" xmlns="http://www.w3.org/2000/svg" xmlns:xlink="http://www.w3.org/1999/xlink" xml:space="preserve" xmlns:serif="http://www.serif.com/" style="fill-rule:evenodd;clip-rule:evenodd;stroke-linecap:square;stroke-miterlimit:1.5;"><g id="PW-Cable-Plugs" serif:id="PW Cable+Plugs"><path d="M91.606,31.853c0,-0.388 -0.289,-0.703 -0.646,-0.703l-4.181,0c-0.357,0 -0.646,0.315 -0.646,0.703l0,1.405c0,0.388 0.289,0.703 0.646,0.703l4.181,0c0.357,0 0.646,-0.315 0.646,-0.703l0,-1.405Z" style="fill:none;stroke:#757575;stroke-width:1.5px;"/><path d="M104.022,33.509l0.052,0.002l0.051,0.004l0.052,0.005l0.051,0.006l0.05,0.008l0.051,0.009l0.049,0.01l0.05,0.012l0.049,0.013l0.048,0.014l0.048,0.016l0.047,0.016l0.047,0.018l0.047,0.02l0.045,0.02l0.046,0.021l0.044,0.023l0.044,0.024l0.044,0.025l0.043,0.026l0.042,0.027l0.041,0.028l0.041,0.03l0.04,0.03l0.04,0.031l0.039,0.032l0.038,0.034l0.037,0.034l0.036,0.035l0.036,0.036l0.035,0.037l0.034,0.038l0.033,0.039l0.033,0.04l0.031,0.04l0.031,0.041l0.029,0.043l0.029,0.042l0.028,0.044l0.027,0.045l0.026,0.045l0.025,0.046l0.024,0.046l0.023,0.047l0.022,0.048l0.02,0.049l0.02,0.049l0.019,0.05l0.018,0.05l0.016,0.051l0.016,0.052l0.014,0.052l0.013,0.053l0.012,0.053l0.011,0.053l0.009,0.055l0.009,0.054l0.007,0.055l0.006,0.056l0.004,0.055l0.003,0.057l0.002,0.056l0.001,0.057l-0.001,0.057l-0.002,0.057l-0.003,0.056l-0.004,0.056l-0.006,0.055l-0.007,0.055l-0.009,0.055l-0.009,0.054l-0.011,0.054l-0.012,0.053l-0.013,0.052l-0.014,0.052l-0.016,0.052l-0.016,0.051l-0.018,0.05l-0.019,0.05l-0.02,0.049l-0.02,0.049l-0.022,0.048l-0.023,0.047l-0.024,0.047l-0.025,0.046l-0.026,0.045l-0.027,0.044l-0.028,0.044l-0.029,0.043l-0.029,0.042l-0.031,0.041l-0.031,0.041l-0.033,0.039l-0.033,0.039l-0.034,0.038l-0.035,0.037l-0.036,0.036l-0.036,0.035l-0.037,0.035l-0.038,0.033l-0.039,0.032l-0.04,0.032l-0.04,0.03l-0.041,0.029l-0.041,0.028l-0.042,0.027l-0.043,0.026l-0.044,0.025l-0.044,0.024l-0.044,0.023l-0.046,0.021l-0.045,0.021l-0.047,0.019l-0.047,0.018l-0.047,0.017l-0.048,0.015l-0.048,0.015l-0.049,0.012l-0.05,0.012l-0.049,0.011l-0.051,0.009l-0.05,0.007l-0.051,0.007l-0.052,0.005l-0.051,0.003l-0.052,0.002l-0.053,0.001l-3.745,0l-0.052,-0.001l-0.052,-0.002l-0.052,-0.003l-0.051,-0.005l-0.051,-0.007l-0.051,-0.007l-0.05,-0.009l-0.05,-0.011l-0.049,-0.012l-0.049,-0.012l-0.048,-0.015l-0.048,-0.015l-0.048,-0.017l-0.047,-0.018l-0.046,-0.019l-0.046,-0.021l-0.045,-0.021l-0.045,-0.023l-0.044,-0.024l-0.043,-0.025l-0.043,-0.026l-0.042,-0.027l-0.042,-0.028l-0.041,-0.029l-0.04,-0.03l-0.039,-0.032l-0.039,-0.032l-0.038,-0.033l-0.037,-0.035l-0.037,-0.035l-0.035,-0.036l-0.035,-0.037l-0.034,-0.038l-0.034,-0.039l-0.032,-0.039l-0.031,-0.041l-0.031,-0.041l-0.03,-0.042l-0.028,-0.043l-0.028,-0.044l-0.027,-0.044l-0.026,-0.045l-0.025,-0.046l-0.024,-0.047l-0.023,-0.047l-0.022,-0.048l-0.021,-0.049l-0.02,-0.049l-0.018,-0.05l-0.018,-0.05l-0.017,-0.051l-0.015,-0.052l-0.014,-0.052l-0.013,-0.052l-0.012,-0.053l-0.011,-0.054l-0.01,-0.054l-0.008,-0.055l-0.007,-0.055l-0.006,-0.055l-0.004,-0.056l-0.004,-0.056l-0.002,-0.057l0,-0.057l0,-0.057l0.002,-0.056l0.004,-0.057l0.004,-0.055l0.006,-0.056l0.007,-0.055l0.008,-0.054l0.01,-0.055l0.011,-0.053l0.012,-0.053l0.013,-0.053l0.014,-0.052l0.015,-0.052l0.017,-0.051l0.018,-0.05l0.018,-0.05l0.02,-0.049l0.021,-0.049l0.022,-0.048l0.023,-0.047l0.024,-0.046l0.025,-0.046l0.026,-0.045l0.027,-0.045l0.028,-0.044l0.028,-0.042l0.03,-0.043l0.031,-0.041l0.031,-0.04l0.032,-0.04l0.034,-0.039l0.034,-0.038l0.035,-0.037l0.035,-0.036l0.037,-0.035l0.037,-0.034l0.038,-0.034l0.039,-0.032l0.039,-0.031l0.04,-0.03l0.041,-0.03l0.042,-0.028l0.042,-0.027l0.043,-0.026l0.043,-0.025l0.044,-0.024l0.045,-0.023l0.045,-0.021l0.046,-0.02l0.046,-0.02l0.047,-0.018l0.048,-0.016l0.048,-0.016l0.048,-0.014l0.049,-0.013l0.049,-0.012l0.05,-0.01l0.05,-0.009l0.051,-0.008l0.051,-0.006l0.051,-0.005l0.052,-0.004l0.052,-0.002l0.052,-0.001l3.745,0l0.053,0.001Zm-3.787,1.499l-0.022,0.001l-0.01,0l-0.011,0.001l-0.01,0.001l-0.01,0.001l-0.011,0.002l-0.01,0.001l-0.01,0.002l-0.009,0.003l-0.01,0.002l-0.01,0.003l-0.01,0.004l-0.01,0.003l-0.01,0.004l-0.01,0.004l-0.011,0.005l-0.01,0.005l-0.01,0.005l-0.011,0.005l-0.01,0.006l-0.011,0.007l-0.01,0.007l-0.011,0.007l-0.01,0.007l-0.011,0.008l-0.011,0.009l-0.01,0.009l-0.011,0.009l-0.011,0.01l-0.01,0.01l-0.011,0.011l-0.01,0.011l-0.01,0.011l-0.011,0.012l-0.01,0.012l-0.01,0.013l-0.009,0.013l-0.01,0.014l-0.009,0.014l-0.009,0.014l-0.009,0.015l-0.009,0.015l-0.008,0.015l-0.008,0.016l-0.008,0.016l-0.008,0.016l-0.007,0.017l-0.007,0.017l-0.006,0.018l-0.006,0.017l-0.006,0.019l-0.006,0.018l-0.005,0.018l-0.005,0.019l-0.004,0.02l-0.004,0.019l-0.003,0.02l-0.003,0.02l-0.003,0.021l-0.002,0.02l-0.002,0.021l-0.001,0.022l-0.001,0.021l0,0.022l0.001,0.044l0.003,0.042l0.005,0.041l0.006,0.04l0.008,0.039l0.01,0.037l0.012,0.037l0.012,0.035l0.014,0.034l0.016,0.032l0.016,0.032l0.018,0.029l0.018,0.029l0.019,0.026l0.02,0.025l0.021,0.024l0.021,0.021l0.021,0.02l0.021,0.018l0.022,0.017l0.021,0.015l0.031,0.019l0.031,0.016l0.031,0.012l0.03,0.01l0.029,0.007l0.031,0.005l0.031,0.002l0.022,0l3.724,0l0.021,0l0.011,-0.001l0.011,0l0.01,-0.001l0.01,-0.002l0.01,-0.001l0.01,-0.002l0.01,-0.002l0.01,-0.002l0.01,-0.003l0.01,-0.003l0.01,-0.003l0.01,-0.004l0.01,-0.004l0.01,-0.004l0.01,-0.004l0.011,-0.005l0.01,-0.005l0.01,-0.006l0.011,-0.006l0.01,-0.006l0.011,-0.007l0.01,-0.007l0.011,-0.008l0.011,-0.008l0.01,-0.009l0.011,-0.008l0.011,-0.01l0.01,-0.01l0.011,-0.01l0.01,-0.01l0.011,-0.011l0.01,-0.012l0.01,-0.012l0.01,-0.012l0.01,-0.013l0.01,-0.013l0.009,-0.013l0.01,-0.014l0.009,-0.015l0.009,-0.014l0.008,-0.015l0.009,-0.016l0.008,-0.016l0.008,-0.016l0.007,-0.016l0.008,-0.017l0.006,-0.017l0.007,-0.017l0.006,-0.018l0.006,-0.018l0.005,-0.018l0.006,-0.019l0.004,-0.019l0.005,-0.019l0.004,-0.02l0.003,-0.02l0.003,-0.02l0.003,-0.02l0.002,-0.021l0.002,-0.021l0.001,-0.021l0.001,-0.022l0,-0.022l0,-0.022l-0.001,-0.021l-0.001,-0.022l-0.002,-0.021l-0.002,-0.02l-0.003,-0.021l-0.003,-0.02l-0.003,-0.02l-0.004,-0.019l-0.005,-0.02l-0.004,-0.019l-0.006,-0.018l-0.005,-0.019l-0.006,-0.018l-0.006,-0.017l-0.007,-0.018l-0.006,-0.017l-0.008,-0.016l-0.007,-0.017l-0.008,-0.016l-0.008,-0.016l-0.009,-0.015l-0.008,-0.015l-0.009,-0.015l-0.009,-0.014l-0.01,-0.014l-0.009,-0.014l-0.01,-0.013l-0.01,-0.013l-0.01,-0.012l-0.01,-0.012l-0.01,-0.011l-0.011,-0.011l-0.01,-0.011l-0.011,-0.01l-0.01,-0.01l-0.011,-0.009l-0.011,-0.009l-0.01,-0.008l-0.011,-0.009l-0.011,-0.007l-0.01,-0.007l-0.011,-0.007l-0.01,-0.007l-0.011,-0.006l-0.01,-0.005l-0.01,-0.005l-0.011,-0.005l-0.01,-0.005l-0.01,-0.004l-0.01,-0.004l-0.01,-0.003l-0.01,-0.004l-0.01,-0.003l-0.01,-0.002l-0.01,-0.003l-0.01,-0.002l-0.01,-0.001l-0.01,-0.002l-0.01,-0.001l-0.01,-0.001l-0.011,-0.001l-0.011,0l-0.021,-0.001l-3.724,0Z" style="fill:#757575;"/><path d="M104.022,27.188l0.052,0.002l0.051,0.003l0.052,0.005l0.051,0.007l0.05,0.007l0.051,0.009l0.049,0.011l0.05,0.011l0.049,0.013l0.048,0.015l0.048,0.015l0.047,0.017l0.047,0.018l0.047,0.019l0.045,0.02l0.046,0.022l0.044,0.023l0.044,0.024l0.044,0.024l0.043,0.027l0.042,0.027l0.041,0.028l0.041,0.029l0.04,0.03l0.04,0.032l0.039,0.032l0.038,0.033l0.037,0.035l0.036,0.035l0.036,0.036l0.035,0.037l0.034,0.038l0.033,0.039l0.033,0.039l0.031,0.041l0.031,0.041l0.029,0.042l0.029,0.043l0.028,0.044l0.027,0.044l0.026,0.045l0.025,0.046l0.024,0.047l0.023,0.047l0.022,0.048l0.02,0.048l0.02,0.05l0.019,0.049l0.018,0.051l0.016,0.051l0.016,0.051l0.014,0.053l0.013,0.052l0.012,0.053l0.011,0.054l0.009,0.054l0.009,0.055l0.007,0.055l0.006,0.055l0.004,0.056l0.003,0.056l0.002,0.057l0.001,0.057l-0.001,0.057l-0.002,0.056l-0.003,0.057l-0.004,0.055l-0.006,0.056l-0.007,0.055l-0.009,0.054l-0.009,0.054l-0.011,0.054l-0.012,0.053l-0.013,0.053l-0.014,0.052l-0.016,0.052l-0.016,0.051l-0.018,0.05l-0.019,0.05l-0.02,0.049l-0.02,0.049l-0.022,0.048l-0.023,0.047l-0.024,0.046l-0.025,0.046l-0.026,0.045l-0.027,0.045l-0.028,0.044l-0.029,0.042l-0.029,0.043l-0.031,0.041l-0.031,0.04l-0.033,0.04l-0.033,0.039l-0.034,0.038l-0.035,0.037l-0.036,0.036l-0.036,0.035l-0.037,0.034l-0.038,0.033l-0.039,0.033l-0.04,0.031l-0.04,0.03l-0.041,0.03l-0.041,0.028l-0.042,0.027l-0.043,0.026l-0.044,0.025l-0.044,0.024l-0.044,0.022l-0.046,0.022l-0.045,0.02l-0.047,0.02l-0.047,0.018l-0.047,0.016l-0.048,0.016l-0.048,0.014l-0.049,0.013l-0.05,0.012l-0.049,0.01l-0.051,0.009l-0.05,0.008l-0.051,0.006l-0.052,0.005l-0.051,0.004l-0.052,0.002l-0.053,0.001l-3.745,0l-0.052,-0.001l-0.052,-0.002l-0.052,-0.004l-0.051,-0.005l-0.051,-0.006l-0.051,-0.008l-0.05,-0.009l-0.05,-0.01l-0.049,-0.012l-0.049,-0.013l-0.048,-0.014l-0.048,-0.016l-0.048,-0.016l-0.047,-0.018l-0.046,-0.02l-0.046,-0.02l-0.045,-0.022l-0.045,-0.022l-0.044,-0.024l-0.043,-0.025l-0.043,-0.026l-0.042,-0.027l-0.042,-0.028l-0.041,-0.03l-0.04,-0.03l-0.039,-0.031l-0.039,-0.033l-0.038,-0.033l-0.037,-0.034l-0.037,-0.035l-0.035,-0.036l-0.035,-0.037l-0.034,-0.038l-0.034,-0.039l-0.032,-0.04l-0.031,-0.04l-0.031,-0.041l-0.03,-0.043l-0.028,-0.042l-0.028,-0.044l-0.027,-0.045l-0.026,-0.045l-0.025,-0.046l-0.024,-0.046l-0.023,-0.047l-0.022,-0.048l-0.021,-0.049l-0.02,-0.049l-0.018,-0.05l-0.018,-0.05l-0.017,-0.051l-0.015,-0.052l-0.014,-0.052l-0.013,-0.053l-0.012,-0.053l-0.011,-0.054l-0.01,-0.054l-0.008,-0.054l-0.007,-0.055l-0.006,-0.056l-0.004,-0.055l-0.004,-0.057l-0.002,-0.056l0,-0.057l0,-0.057l0.002,-0.057l0.004,-0.056l0.004,-0.056l0.006,-0.055l0.007,-0.055l0.008,-0.055l0.01,-0.054l0.011,-0.054l0.012,-0.053l0.013,-0.052l0.014,-0.053l0.015,-0.051l0.017,-0.051l0.018,-0.051l0.018,-0.049l0.02,-0.05l0.021,-0.048l0.022,-0.048l0.023,-0.047l0.024,-0.047l0.025,-0.046l0.026,-0.045l0.027,-0.044l0.028,-0.044l0.028,-0.043l0.03,-0.042l0.031,-0.041l0.031,-0.041l0.032,-0.039l0.034,-0.039l0.034,-0.038l0.035,-0.037l0.035,-0.036l0.037,-0.035l0.037,-0.035l0.038,-0.033l0.039,-0.032l0.039,-0.032l0.04,-0.03l0.041,-0.029l0.042,-0.028l0.042,-0.027l0.043,-0.027l0.043,-0.024l0.044,-0.024l0.045,-0.023l0.045,-0.022l0.046,-0.02l0.046,-0.019l0.047,-0.018l0.048,-0.017l0.048,-0.015l0.048,-0.015l0.049,-0.013l0.049,-0.011l0.05,-0.011l0.05,-0.009l0.051,-0.007l0.051,-0.007l0.051,-0.005l0.052,-0.003l0.052,-0.002l0.052,-0.001l3.745,0l0.053,0.001Zm-3.787,1.499l-0.022,0l-0.01,0.001l-0.011,0l-0.01,0.001l-0.01,0.002l-0.011,0.001l-0.01,0.002l-0.01,0.002l-0.009,0.002l-0.01,0.003l-0.01,0.003l-0.01,0.003l-0.01,0.004l-0.01,0.004l-0.01,0.004l-0.011,0.004l-0.01,0.005l-0.01,0.005l-0.011,0.006l-0.01,0.006l-0.011,0.006l-0.01,0.007l-0.011,0.007l-0.01,0.008l-0.011,0.008l-0.011,0.009l-0.01,0.008l-0.011,0.01l-0.011,0.009l-0.01,0.011l-0.011,0.01l-0.01,0.011l-0.01,0.012l-0.011,0.012l-0.01,0.012l-0.01,0.013l-0.009,0.013l-0.01,0.013l-0.009,0.014l-0.009,0.015l-0.009,0.014l-0.009,0.015l-0.008,0.016l-0.008,0.016l-0.008,0.016l-0.008,0.016l-0.007,0.017l-0.007,0.017l-0.006,0.017l-0.006,0.018l-0.006,0.018l-0.006,0.018l-0.005,0.019l-0.005,0.019l-0.004,0.019l-0.004,0.02l-0.003,0.02l-0.003,0.02l-0.003,0.02l-0.002,0.021l-0.002,0.021l-0.001,0.021l-0.001,0.022l0,0.022l0.001,0.043l0.003,0.043l0.005,0.041l0.006,0.04l0.008,0.038l0.01,0.038l0.012,0.036l0.012,0.036l0.014,0.033l0.016,0.033l0.016,0.031l0.018,0.03l0.018,0.028l0.019,0.027l0.02,0.025l0.021,0.023l0.021,0.022l0.021,0.02l0.021,0.018l0.022,0.016l0.021,0.015l0.031,0.019l0.031,0.016l0.031,0.013l0.03,0.009l0.029,0.008l0.031,0.004l0.031,0.002l0.022,0.001l3.724,0l0.021,-0.001l0.011,0l0.011,-0.001l0.01,-0.001l0.01,-0.001l0.01,-0.002l0.01,-0.001l0.01,-0.003l0.01,-0.002l0.01,-0.002l0.01,-0.003l0.01,-0.004l0.01,-0.003l0.01,-0.004l0.01,-0.004l0.01,-0.005l0.011,-0.005l0.01,-0.005l0.01,-0.005l0.011,-0.007l0.01,-0.006l0.011,-0.007l0.01,-0.007l0.011,-0.008l0.011,-0.008l0.01,-0.008l0.011,-0.009l0.011,-0.009l0.01,-0.01l0.011,-0.01l0.01,-0.011l0.011,-0.011l0.01,-0.011l0.01,-0.012l0.01,-0.012l0.01,-0.013l0.01,-0.013l0.009,-0.014l0.01,-0.014l0.009,-0.014l0.009,-0.015l0.008,-0.015l0.009,-0.015l0.008,-0.016l0.008,-0.016l0.007,-0.017l0.008,-0.016l0.006,-0.017l0.007,-0.018l0.006,-0.018l0.006,-0.018l0.005,-0.018l0.006,-0.019l0.004,-0.019l0.005,-0.019l0.004,-0.019l0.003,-0.02l0.003,-0.02l0.003,-0.021l0.002,-0.02l0.002,-0.021l0.001,-0.022l0.001,-0.021l0,-0.022l0,-0.022l-0.001,-0.022l-0.001,-0.021l-0.002,-0.021l-0.002,-0.021l-0.003,-0.02l-0.003,-0.02l-0.003,-0.02l-0.004,-0.02l-0.005,-0.019l-0.004,-0.019l-0.006,-0.019l-0.005,-0.018l-0.006,-0.018l-0.006,-0.018l-0.007,-0.017l-0.006,-0.017l-0.008,-0.017l-0.007,-0.017l-0.008,-0.016l-0.008,-0.015l-0.009,-0.016l-0.008,-0.015l-0.009,-0.014l-0.009,-0.015l-0.01,-0.014l-0.009,-0.013l-0.01,-0.013l-0.01,-0.013l-0.01,-0.012l-0.01,-0.012l-0.01,-0.012l-0.011,-0.011l-0.01,-0.01l-0.011,-0.011l-0.01,-0.009l-0.011,-0.01l-0.011,-0.008l-0.01,-0.009l-0.011,-0.008l-0.011,-0.008l-0.01,-0.007l-0.011,-0.007l-0.01,-0.006l-0.011,-0.006l-0.01,-0.006l-0.01,-0.005l-0.011,-0.005l-0.01,-0.004l-0.01,-0.004l-0.01,-0.004l-0.01,-0.004l-0.01,-0.003l-0.01,-0.003l-0.01,-0.003l-0.01,-0.002l-0.01,-0.002l-0.01,-0.002l-0.01,-0.001l-0.01,-0.002l-0.01,-0.001l-0.011,0l-0.011,-0.001l-0.021,0l-3.724,0Z" style="fill:#757575;"/><path d="M99.731,24.317c0.283,0 0.512,0.25 0.512,0.557l0,15.363c0,0.307 -0.229,0.557 -0.512,0.557l-1.47,0c0,0 -0.067,0 -0.067,0l0,0c-4.193,-0.039 -7.581,-3.713 -7.581,-8.239c0,-4.525 3.388,-8.199 7.581,-8.238l0,0l1.537,0Zm-1.537,2.06c-3.137,0.039 -5.669,2.79 -5.669,6.178c0,3.389 2.532,6.14 5.669,6.179l0,-12.357Z" style="fill:#757575;"/><path d="M76.394,33.258c0,0.388 0.289,0.703 0.646,0.703l4.181,0c0.357,0 0.646,-0.315 0.646,-0.703l0,-1.405c0,-0.388 -0.289,-0.703 -0.646,-0.703l-4.181,0c-0.357,0 -0.646,0.315 -0.646,0.703l0,1.405Z" style="fill:none;stroke:#757575;stroke-width:1.5px;"/><path d="M67.828,27.188l0.052,0.002l0.052,0.003l0.051,0.005l0.051,0.007l0.051,0.007l0.05,0.009l0.05,0.011l0.049,0.011l0.049,0.013l0.048,0.015l0.048,0.015l0.048,0.017l0.047,0.018l0.046,0.019l0.046,0.02l0.045,0.022l0.045,0.023l0.044,0.024l0.043,0.024l0.043,0.027l0.042,0.027l0.042,0.028l0.041,0.029l0.04,0.03l0.039,0.032l0.039,0.032l0.038,0.033l0.037,0.035l0.037,0.035l0.035,0.036l0.035,0.037l0.034,0.038l0.034,0.039l0.032,0.039l0.031,0.041l0.031,0.041l0.03,0.042l0.028,0.043l0.028,0.044l0.027,0.044l0.026,0.045l0.025,0.046l0.024,0.047l0.023,0.047l0.022,0.048l0.021,0.048l0.02,0.05l0.018,0.049l0.018,0.051l0.017,0.051l0.015,0.051l0.014,0.053l0.013,0.052l0.012,0.053l0.011,0.054l0.01,0.054l0.008,0.055l0.007,0.055l0.006,0.055l0.004,0.056l0.004,0.056l0.002,0.057l0,0.057l0,0.057l-0.002,0.056l-0.004,0.057l-0.004,0.055l-0.006,0.056l-0.007,0.055l-0.008,0.054l-0.01,0.054l-0.011,0.054l-0.012,0.053l-0.013,0.053l-0.014,0.052l-0.015,0.052l-0.017,0.051l-0.018,0.05l-0.018,0.05l-0.02,0.049l-0.021,0.049l-0.022,0.048l-0.023,0.047l-0.024,0.046l-0.025,0.046l-0.026,0.045l-0.027,0.045l-0.028,0.044l-0.028,0.042l-0.03,0.043l-0.031,0.041l-0.031,0.04l-0.032,0.04l-0.034,0.039l-0.034,0.038l-0.035,0.037l-0.035,0.036l-0.037,0.035l-0.037,0.034l-0.038,0.033l-0.039,0.033l-0.039,0.031l-0.04,0.03l-0.041,0.03l-0.042,0.028l-0.042,0.027l-0.043,0.026l-0.043,0.025l-0.044,0.024l-0.045,0.022l-0.045,0.022l-0.046,0.02l-0.046,0.02l-0.047,0.018l-0.048,0.016l-0.048,0.016l-0.048,0.014l-0.049,0.013l-0.049,0.012l-0.05,0.01l-0.05,0.009l-0.051,0.008l-0.051,0.006l-0.051,0.005l-0.052,0.004l-0.052,0.002l-0.052,0.001l-3.745,0l-0.053,-0.001l-0.052,-0.002l-0.051,-0.004l-0.052,-0.005l-0.051,-0.006l-0.05,-0.008l-0.051,-0.009l-0.049,-0.01l-0.05,-0.012l-0.049,-0.013l-0.048,-0.014l-0.048,-0.016l-0.047,-0.016l-0.047,-0.018l-0.047,-0.02l-0.045,-0.02l-0.046,-0.022l-0.044,-0.022l-0.044,-0.024l-0.044,-0.025l-0.043,-0.026l-0.042,-0.027l-0.041,-0.028l-0.041,-0.03l-0.04,-0.03l-0.04,-0.031l-0.039,-0.033l-0.038,-0.033l-0.037,-0.034l-0.036,-0.035l-0.036,-0.036l-0.035,-0.037l-0.034,-0.038l-0.033,-0.039l-0.033,-0.04l-0.031,-0.04l-0.031,-0.041l-0.029,-0.043l-0.029,-0.042l-0.028,-0.044l-0.027,-0.045l-0.026,-0.045l-0.025,-0.046l-0.024,-0.046l-0.023,-0.047l-0.022,-0.048l-0.02,-0.049l-0.02,-0.049l-0.019,-0.05l-0.018,-0.05l-0.016,-0.051l-0.016,-0.052l-0.014,-0.052l-0.013,-0.053l-0.012,-0.053l-0.011,-0.054l-0.009,-0.054l-0.009,-0.054l-0.007,-0.055l-0.006,-0.056l-0.004,-0.055l-0.003,-0.057l-0.002,-0.056l-0.001,-0.057l0.001,-0.057l0.002,-0.057l0.003,-0.056l0.004,-0.056l0.006,-0.055l0.007,-0.055l0.009,-0.055l0.009,-0.054l0.011,-0.054l0.012,-0.053l0.013,-0.052l0.014,-0.053l0.016,-0.051l0.016,-0.051l0.018,-0.051l0.019,-0.049l0.02,-0.05l0.02,-0.048l0.022,-0.048l0.023,-0.047l0.024,-0.047l0.025,-0.046l0.026,-0.045l0.027,-0.044l0.028,-0.044l0.029,-0.043l0.029,-0.042l0.031,-0.041l0.031,-0.041l0.033,-0.039l0.033,-0.039l0.034,-0.038l0.035,-0.037l0.036,-0.036l0.036,-0.035l0.037,-0.035l0.038,-0.033l0.039,-0.032l0.04,-0.032l0.04,-0.03l0.041,-0.029l0.041,-0.028l0.042,-0.027l0.043,-0.027l0.044,-0.024l0.044,-0.024l0.044,-0.023l0.046,-0.022l0.045,-0.02l0.047,-0.019l0.047,-0.018l0.047,-0.017l0.048,-0.015l0.048,-0.015l0.049,-0.013l0.05,-0.011l0.049,-0.011l0.051,-0.009l0.05,-0.007l0.051,-0.007l0.052,-0.005l0.051,-0.003l0.052,-0.002l0.053,-0.001l3.745,0l0.052,0.001Zm-3.787,1.499l-0.021,0l-0.011,0.001l-0.011,0l-0.01,0.001l-0.01,0.002l-0.01,0.001l-0.01,0.002l-0.01,0.002l-0.01,0.002l-0.01,0.003l-0.01,0.003l-0.01,0.003l-0.01,0.004l-0.01,0.004l-0.01,0.004l-0.01,0.004l-0.011,0.005l-0.01,0.005l-0.01,0.006l-0.011,0.006l-0.01,0.006l-0.011,0.007l-0.01,0.007l-0.011,0.008l-0.011,0.008l-0.01,0.009l-0.011,0.008l-0.011,0.01l-0.01,0.01l-0.011,0.01l-0.01,0.01l-0.011,0.011l-0.01,0.012l-0.01,0.012l-0.01,0.012l-0.01,0.013l-0.01,0.013l-0.009,0.013l-0.01,0.014l-0.009,0.015l-0.009,0.014l-0.008,0.015l-0.009,0.016l-0.008,0.015l-0.008,0.017l-0.007,0.016l-0.008,0.017l-0.006,0.017l-0.007,0.017l-0.006,0.018l-0.006,0.018l-0.005,0.018l-0.006,0.019l-0.004,0.019l-0.005,0.019l-0.004,0.02l-0.003,0.02l-0.003,0.02l-0.003,0.02l-0.002,0.021l-0.002,0.021l-0.001,0.021l-0.001,0.022l0,0.022l0,0.022l0.001,0.021l0.001,0.022l0.002,0.021l0.002,0.02l0.003,0.021l0.003,0.02l0.003,0.02l0.004,0.019l0.005,0.019l0.004,0.019l0.006,0.019l0.005,0.018l0.006,0.018l0.006,0.018l0.007,0.018l0.006,0.017l0.008,0.016l0.007,0.017l0.008,0.016l0.008,0.016l0.009,0.015l0.008,0.015l0.009,0.015l0.009,0.014l0.01,0.014l0.009,0.014l0.01,0.013l0.01,0.012l0.01,0.013l0.01,0.012l0.01,0.011l0.011,0.011l0.01,0.011l0.011,0.01l0.01,0.01l0.011,0.009l0.011,0.009l0.01,0.008l0.011,0.008l0.011,0.008l0.01,0.007l0.011,0.007l0.01,0.006l0.011,0.006l0.01,0.006l0.01,0.005l0.011,0.005l0.01,0.005l0.01,0.004l0.01,0.004l0.01,0.003l0.01,0.004l0.01,0.002l0.01,0.003l0.01,0.002l0.01,0.003l0.01,0.001l0.01,0.002l0.01,0.001l0.01,0.001l0.011,0.001l0.011,0l0.021,0.001l3.724,0l0.022,-0.001l0.01,0l0.011,-0.001l0.01,-0.001l0.01,-0.001l0.011,-0.002l0.01,-0.001l0.01,-0.003l0.009,-0.002l0.01,-0.003l0.01,-0.002l0.01,-0.004l0.01,-0.003l0.01,-0.004l0.01,-0.004l0.011,-0.005l0.01,-0.005l0.01,-0.005l0.011,-0.006l0.01,-0.006l0.011,-0.006l0.01,-0.007l0.011,-0.007l0.01,-0.008l0.011,-0.008l0.011,-0.008l0.01,-0.009l0.011,-0.009l0.011,-0.01l0.01,-0.01l0.011,-0.011l0.01,-0.011l0.01,-0.011l0.011,-0.012l0.01,-0.013l0.01,-0.012l0.009,-0.013l0.01,-0.014l0.009,-0.014l0.009,-0.014l0.009,-0.015l0.009,-0.015l0.008,-0.015l0.008,-0.016l0.008,-0.016l0.008,-0.017l0.007,-0.016l0.007,-0.017l0.006,-0.018l0.006,-0.018l0.006,-0.018l0.006,-0.018l0.005,-0.019l0.005,-0.019l0.004,-0.019l0.004,-0.019l0.003,-0.02l0.003,-0.02l0.003,-0.021l0.002,-0.02l0.002,-0.021l0.001,-0.022l0.001,-0.021l0,-0.022l-0.001,-0.044l-0.003,-0.042l-0.005,-0.041l-0.006,-0.04l-0.008,-0.039l-0.01,-0.038l-0.012,-0.036l-0.012,-0.035l-0.014,-0.034l-0.016,-0.033l-0.016,-0.031l-0.018,-0.029l-0.018,-0.029l-0.019,-0.026l-0.02,-0.025l-0.021,-0.024l-0.021,-0.021l-0.021,-0.02l-0.021,-0.018l-0.022,-0.017l-0.021,-0.015l-0.031,-0.019l-0.031,-0.016l-0.031,-0.012l-0.03,-0.01l-0.029,-0.007l-0.031,-0.005l-0.031,-0.002l-0.022,0l-3.724,0Z" style="fill:#757575;"/><path d="M67.828,33.509l0.052,0.002l0.052,0.004l0.051,0.005l0.051,0.006l0.051,0.008l0.05,0.009l0.05,0.01l0.049,0.012l0.049,0.013l0.048,0.014l0.048,0.016l0.048,0.016l0.047,0.018l0.046,0.02l0.046,0.02l0.045,0.021l0.045,0.023l0.044,0.024l0.043,0.025l0.043,0.026l0.042,0.027l0.042,0.028l0.041,0.03l0.04,0.03l0.039,0.031l0.039,0.032l0.038,0.034l0.037,0.034l0.037,0.035l0.035,0.036l0.035,0.037l0.034,0.038l0.034,0.039l0.032,0.04l0.031,0.04l0.031,0.041l0.03,0.043l0.028,0.042l0.028,0.044l0.027,0.045l0.026,0.045l0.025,0.046l0.024,0.046l0.023,0.047l0.022,0.048l0.021,0.049l0.02,0.049l0.018,0.05l0.018,0.05l0.017,0.051l0.015,0.052l0.014,0.052l0.013,0.053l0.012,0.053l0.011,0.053l0.01,0.055l0.008,0.054l0.007,0.055l0.006,0.056l0.004,0.055l0.004,0.057l0.002,0.056l0,0.057l-0.001,0.067l-0.002,0.066l-0.005,0.066l-0.006,0.065l-0.008,0.065l-0.01,0.064l-0.011,0.063l-0.013,0.063l-0.015,0.062l-0.016,0.061l-0.018,0.06l-0.019,0.06l-0.021,0.059l-0.022,0.058l-0.024,0.058l-0.025,0.056l-0.027,0.056l-0.028,0.054l-0.03,0.054l-0.03,0.052l-0.033,0.052l-0.033,0.051l-0.035,0.049l-0.036,0.048l-0.037,0.048l-0.038,0.046l-0.039,0.045l-0.041,0.043l-0.042,0.043l-0.043,0.041l-0.043,0.04l-0.045,0.038l-0.033,0.027l-0.032,0.025l-0.034,0.025l-0.033,0.025l-0.035,0.023l-0.034,0.023l-0.036,0.022l-0.035,0.022l-0.036,0.02l-0.037,0.02l-0.037,0.019l-0.037,0.018l-0.037,0.018l-0.038,0.017l-0.039,0.016l-0.039,0.015l-0.039,0.014l-0.039,0.013l-0.04,0.013l-0.04,0.011l-0.041,0.011l-0.04,0.01l-0.042,0.009l-0.041,0.008l-0.042,0.007l-0.042,0.007l-0.042,0.005l-0.042,0.004l-0.043,0.004l-0.043,0.002l-0.043,0.002l-0.043,0l-3.745,0l-0.053,-0.001l-0.052,-0.002l-0.051,-0.003l-0.052,-0.005l-0.051,-0.007l-0.05,-0.007l-0.051,-0.009l-0.049,-0.011l-0.05,-0.012l-0.049,-0.012l-0.048,-0.015l-0.048,-0.015l-0.047,-0.017l-0.047,-0.018l-0.047,-0.019l-0.045,-0.021l-0.046,-0.021l-0.044,-0.023l-0.044,-0.024l-0.044,-0.025l-0.043,-0.026l-0.042,-0.027l-0.041,-0.028l-0.041,-0.029l-0.04,-0.03l-0.04,-0.032l-0.039,-0.032l-0.038,-0.033l-0.037,-0.035l-0.036,-0.035l-0.036,-0.036l-0.035,-0.037l-0.034,-0.038l-0.033,-0.039l-0.033,-0.039l-0.031,-0.041l-0.031,-0.041l-0.029,-0.042l-0.029,-0.043l-0.028,-0.044l-0.027,-0.044l-0.026,-0.045l-0.025,-0.046l-0.024,-0.047l-0.023,-0.047l-0.022,-0.048l-0.02,-0.049l-0.02,-0.049l-0.019,-0.05l-0.018,-0.05l-0.016,-0.051l-0.016,-0.052l-0.014,-0.052l-0.013,-0.052l-0.012,-0.053l-0.011,-0.054l-0.009,-0.054l-0.009,-0.055l-0.007,-0.055l-0.006,-0.055l-0.004,-0.056l-0.003,-0.056l-0.002,-0.057l-0.001,-0.057l0.001,-0.057l0.002,-0.056l0.003,-0.057l0.004,-0.055l0.006,-0.056l0.007,-0.055l0.009,-0.054l0.009,-0.055l0.011,-0.053l0.012,-0.053l0.013,-0.053l0.014,-0.052l0.016,-0.052l0.016,-0.051l0.018,-0.05l0.019,-0.05l0.02,-0.049l0.02,-0.049l0.022,-0.048l0.023,-0.047l0.024,-0.046l0.025,-0.046l0.026,-0.045l0.027,-0.045l0.028,-0.044l0.029,-0.042l0.029,-0.043l0.031,-0.041l0.031,-0.04l0.033,-0.04l0.033,-0.039l0.034,-0.038l0.035,-0.037l0.036,-0.036l0.036,-0.035l0.037,-0.034l0.038,-0.034l0.039,-0.032l0.04,-0.031l0.04,-0.03l0.041,-0.03l0.041,-0.028l0.042,-0.027l0.043,-0.026l0.044,-0.025l0.044,-0.024l0.044,-0.023l0.046,-0.021l0.045,-0.02l0.047,-0.02l0.047,-0.018l0.047,-0.016l0.048,-0.016l0.048,-0.014l0.049,-0.013l0.05,-0.012l0.049,-0.01l0.051,-0.009l0.05,-0.008l0.051,-0.006l0.052,-0.005l0.051,-0.004l0.052,-0.002l0.053,-0.001l3.745,0l0.052,0.001Zm-3.787,1.499l-0.021,0.001l-0.011,0l-0.011,0.001l-0.01,0.001l-0.01,0.001l-0.01,0.002l-0.01,0.001l-0.01,0.002l-0.01,0.003l-0.01,0.002l-0.01,0.003l-0.01,0.004l-0.01,0.003l-0.01,0.004l-0.01,0.004l-0.01,0.005l-0.011,0.005l-0.01,0.005l-0.01,0.005l-0.011,0.006l-0.01,0.007l-0.011,0.007l-0.01,0.007l-0.011,0.007l-0.011,0.009l-0.01,0.008l-0.011,0.009l-0.011,0.009l-0.01,0.01l-0.011,0.01l-0.01,0.011l-0.011,0.011l-0.01,0.011l-0.01,0.012l-0.01,0.012l-0.01,0.013l-0.01,0.013l-0.009,0.014l-0.01,0.014l-0.009,0.014l-0.009,0.015l-0.008,0.015l-0.009,0.015l-0.008,0.016l-0.008,0.016l-0.007,0.016l-0.008,0.017l-0.006,0.017l-0.007,0.018l-0.006,0.017l-0.006,0.018l-0.005,0.019l-0.006,0.018l-0.004,0.019l-0.005,0.02l-0.004,0.019l-0.003,0.02l-0.003,0.02l-0.003,0.021l-0.002,0.02l-0.002,0.021l-0.001,0.022l-0.001,0.021l0,0.022l0,0.022l0.001,0.022l0.001,0.021l0.002,0.021l0.002,0.021l0.003,0.02l0.003,0.02l0.003,0.02l0.004,0.02l0.005,0.019l0.004,0.019l0.006,0.018l0.005,0.019l0.006,0.018l0.006,0.018l0.007,0.017l0.006,0.017l0.008,0.017l0.007,0.016l0.008,0.016l0.008,0.016l0.009,0.016l0.008,0.015l0.009,0.014l0.009,0.015l0.01,0.014l0.009,0.013l0.01,0.013l0.01,0.013l0.01,0.012l0.01,0.012l0.01,0.012l0.011,0.011l0.01,0.01l0.011,0.01l0.01,0.01l0.011,0.01l0.011,0.008l0.01,0.009l0.011,0.008l0.011,0.008l0.01,0.007l0.011,0.007l0.01,0.006l0.011,0.006l0.01,0.006l0.01,0.005l0.011,0.005l0.01,0.004l0.01,0.004l0.01,0.004l0.01,0.004l0.01,0.003l0.01,0.003l0.01,0.003l0.01,0.002l0.01,0.002l0.01,0.002l0.01,0.001l0.01,0.002l0.01,0.001l0.011,0l0.011,0.001l0.021,0l3.726,0l0.018,0l0.009,0l0.008,-0.001l0.009,-0.001l0.009,-0.001l0.008,-0.001l0.009,-0.001l0.008,-0.001l0.008,-0.002l0.008,-0.002l0.009,-0.002l0.008,-0.002l0.008,-0.002l0.008,-0.003l0.009,-0.003l0.008,-0.003l0.008,-0.003l0.009,-0.003l0.008,-0.004l0.008,-0.004l0.009,-0.004l0.009,-0.005l0.008,-0.004l0.009,-0.005l0.008,-0.005l0.009,-0.006l0.009,-0.006l0.009,-0.006l0.009,-0.006l0.008,-0.007l0.009,-0.007l0.007,-0.005l0.015,-0.013l0.012,-0.011l0.012,-0.012l0.013,-0.012l0.012,-0.014l0.012,-0.013l0.012,-0.014l0.011,-0.015l0.012,-0.016l0.011,-0.016l0.011,-0.016l0.01,-0.017l0.011,-0.017l0.009,-0.018l0.01,-0.019l0.009,-0.019l0.009,-0.019l0.008,-0.02l0.008,-0.02l0.007,-0.021l0.007,-0.021l0.006,-0.022l0.006,-0.022l0.005,-0.022l0.005,-0.023l0.004,-0.023l0.004,-0.024l0.003,-0.024l0.002,-0.024l0.002,-0.025l0.001,-0.025l0,-0.027l-0.001,-0.042l-0.003,-0.043l-0.005,-0.041l-0.006,-0.04l-0.008,-0.039l-0.01,-0.037l-0.012,-0.037l-0.012,-0.035l-0.014,-0.034l-0.016,-0.032l-0.016,-0.031l-0.018,-0.03l-0.018,-0.028l-0.019,-0.027l-0.02,-0.025l-0.021,-0.023l-0.021,-0.022l-0.021,-0.02l-0.021,-0.018l-0.022,-0.017l-0.021,-0.014l-0.031,-0.02l-0.031,-0.015l-0.031,-0.013l-0.03,-0.01l-0.029,-0.007l-0.031,-0.004l-0.031,-0.002l-0.022,-0.001l-3.724,0Z" style="fill:#757575;"/><path d="M69.739,24.317l0.067,0l0,0c4.193,0.039 7.581,3.713 7.581,8.238c0,4.526 -3.388,8.2 -7.581,8.239l0,0l-0.067,0c0,0 -1.47,0 -1.47,0c-0.283,0 -0.512,-0.25 -0.512,-0.557l0,-15.363c0,-0.307 0.229,-0.557 0.512,-0.557l1.47,0Zm0.067,2.06l0,12.357c3.137,-0.039 5.669,-2.79 5.669,-6.179c0,-3.388 -2.532,-6.139 -5.669,-6.178Z" style="fill:#757575;"/><path id="Cable" d="M86.829,32.079c0,-0.263 -0.261,-0.476 -0.581,-0.476l-4.492,0c-0.321,0 -0.581,0.213 -0.581,0.476l0,0.953c0,0.263 0.26,0.476 0.581,0.476l4.492,0c0.32,0 0.581,-0.213 0.581,-0.476l0,-0.953Z" style="fill:#757575;"/></g><path id="ProcessWire" d="M169.351,14.261c-2.002,-2.942 -5.332,-6.303 -8.676,-8.479c-6.947,-4.682 -14.993,-6.344 -22.11,-5.619c-7.422,0.788 -13.777,3.54 -19.002,8.13c-4.84,4.255 -8.036,9.457 -9.444,14.418c-1.424,4.96 -1.234,9.553 -0.726,13.012c0.537,3.51 2.313,7.927 2.313,7.927c0.363,0.847 0.866,1.191 1.128,1.335c1.298,0.698 3.429,0.084 5.065,-1.724c0.082,-0.111 0.126,-0.266 0.082,-0.396c-0.456,-1.729 -0.621,-3.031 -0.783,-4.038c-0.372,-1.991 -0.537,-5.329 -0.289,-8.414c0.124,-1.67 0.454,-3.456 1.031,-5.329c1.117,-3.7 3.471,-7.562 7.15,-10.772c3.963,-3.456 9.045,-5.591 13.877,-6.143c1.694,-0.2 4.917,-0.393 8.797,0.549c0.827,0.203 4.38,1.115 8.181,3.649c2.766,1.851 4.994,4.135 6.528,6.395c1.562,2.157 3.259,5.794 3.757,8.458c0.704,3.031 0.704,6.243 0.203,9.372c-0.618,3.134 -1.735,6.181 -3.47,8.864c-1.196,2.078 -3.677,4.825 -6.608,6.887c-2.643,1.83 -5.66,3.151 -8.756,3.882c-1.568,0.365 -3.141,0.598 -4.752,0.649c-1.433,0.043 -3.333,0 -4.667,-0.222c-1.983,-0.311 -2.395,-0.809 -2.849,-1.486c0,0 -0.316,-0.487 -0.404,-1.791c0.03,-11.922 0.025,-8.74 0.025,-14.929c0,-1.749 -0.058,-3.334 -0.042,-4.774c0.083,-2.363 0.286,-3.987 2.002,-5.746c1.241,-1.297 2.976,-2.079 4.887,-2.079c0.58,0 2.58,0.027 4.337,1.465c1.883,1.548 2.2,3.664 2.274,4.23c0.429,3.31 -1.793,5.775 -2.645,6.4c-1.056,0.78 -2.005,1.159 -2.646,1.381c-1.364,0.449 -2.863,0.579 -4.21,0.492c-0.206,-0.013 -0.393,0.119 -0.435,0.322l-0.453,2.317c-0.443,1.759 0.55,2.403 1.127,2.631c1.845,0.56 3.482,0.793 5.42,0.649c2.973,-0.205 5.904,-1.358 8.393,-3.643c2.118,-1.981 3.325,-4.425 3.737,-7.158c0.413,-3.034 -0.123,-6.301 -1.529,-9.067c-1.545,-3.05 -4.213,-5.597 -7.727,-6.99c-3.55,-1.375 -6.374,-1.424 -10.015,-0.509l-0.042,0.013c-2.365,0.801 -4.389,1.789 -6.495,3.93c-1.444,1.478 -2.626,3.267 -3.347,5.286c-0.715,2.035 -0.907,3.553 -0.94,5.913c-0.044,1.749 0.041,3.373 0.041,4.894l0,10.016c0,3.205 -0.11,3.759 0,5.408c0.06,1.093 0.214,2.33 0.701,3.659c0.501,1.464 1.551,2.966 2.272,3.659c1.009,1.058 2.293,1.908 3.555,2.436c2.891,1.264 6.815,1.464 9.997,1.342c2.106,-0.078 4.224,-0.365 6.3,-0.85c4.152,-0.971 8.14,-2.739 11.646,-5.191c3.759,-2.606 7.026,-6.162 8.83,-9.183c2.313,-3.588 3.809,-7.616 4.587,-11.754c0.701,-4.146 0.668,-8.398 -0.272,-12.482c-0.743,-3.789 -2.725,-7.946 -5.013,-11.302l0.104,0.1Z" style="fill:#2480e6;fill-rule:nonzero;"/><path id="Snipcart" d="M55.201,13.666l-22.349,-12.836c-2.011,-1.107 -5.14,-1.107 -7.151,0l-22.349,12.836c-1.788,1.328 -3.352,3.983 -3.352,6.196l0,25.451c0,2.213 1.564,4.868 3.576,5.975l22.348,12.836c2.012,1.106 5.14,1.106 7.152,0l22.348,-12.836c2.012,-1.107 3.576,-3.762 3.576,-5.975l0,-25.451c-0.223,-2.213 -1.788,-4.868 -3.799,-6.196Zm-6.034,13.942l-2.235,0l0,-3.983c0,-2.877 -2.235,-3.984 -6.705,-3.984l-0.223,0c-10.727,0 -9.834,-3.984 -10.057,-5.533l-0.224,0c-0.223,1.549 0.671,5.533 -10.056,5.533l-0.224,0c-4.47,0 -6.704,0.885 -6.704,3.984l0,3.098l36.428,10.401l0,4.426c0,4.205 -2.012,6.64 -9.163,6.64l-0.447,0c-5.364,0 -8.94,1.106 -8.94,5.532l-2.234,0c0,-4.204 -3.353,-5.532 -8.94,-5.532c-6.928,0 -9.163,-2.435 -9.163,-6.64l0,-3.762l2.235,0l0,3.984c0,2.877 2.235,3.983 6.705,3.983l0.223,0c10.727,0 9.834,3.984 10.057,5.533l0.223,0c0.224,-1.549 -0.67,-5.533 10.057,-5.533l0.447,0c4.47,0 6.705,-0.885 6.705,-3.983l0,-2.213l-36.652,-10.623l0,-5.09c0,-4.205 2.012,-6.639 9.163,-6.639l0.447,0c5.587,0 8.94,-1.107 8.94,-5.533l2.234,0c0,4.205 3.353,5.533 8.94,5.533l0.223,0c6.928,0 9.163,2.434 9.163,6.639l-0.223,3.762Z" style="fill:#f6e767;fill-rule:nonzero;"/></svg>