<svg clip-rule="evenodd" fill-rule="evenodd" stroke-linecap="square" stroke-miterlimit="1.5" viewBox="0 0 175 65" xmlns="http://www.w3.org/2000/svg"><path d="m91.606 31.853c0-.388-.289-.703-.646-.703h-4.181c-.357 0-.646.315-.646.703v1.405c0 .388.289.703.646.703h4.181c.357 0 .646-.315.646-.703z" fill="none" stroke="#757575" stroke-width="1.5"/><path d="m104.022 33.509.052.002.051.004.052.005.051.006.05.008.051.009.049.01.05.012.049.013.048.014.048.016.047.016.047.018.047.02.045.02.046.021.044.023.044.024.044.025.043.026.042.027.041.028.041.03.04.03.04.031.039.032.038.034.037.034.036.035.036.036.035.037.034.038.033.039.033.04.031.04.031.041.029.043.029.042.028.044.027.045.026.045.025.046.024.046.023.047.022.048.02.049.02.049.019.05.018.05.016.051.016.052.014.052.013.053.012.053.011.053.009.055.009.054.007.055.006.056.004.055.003.057.002.056.001.057-.001.057-.002.057-.003.056-.004.056-.006.055-.007.055-.009.055-.009.054-.011.054-.012.053-.013.052-.014.052-.016.052-.016.051-.018.05-.019.05-.02.049-.02.049-.022.048-.023.047-.024.047-.025.046-.026.045-.027.044-.028.044-.029.043-.029.042-.031.041-.031.041-.033.039-.033.039-.034.038-.035.037-.036.036-.036.035-.037.035-.038.033-.039.032-.04.032-.04.03-.041.029-.041.028-.042.027-.043.026-.044.025-.044.024-.044.023-.046.021-.045.021-.047.019-.047.018-.047.017-.048.015-.048.015-.049.012-.05.012-.049.011-.051.009-.05.007-.051.007-.052.005-.051.003-.052.002-.053.001h-3.745l-.052-.001-.052-.002-.052-.003-.051-.005-.051-.007-.051-.007-.05-.009-.05-.011-.049-.012-.049-.012-.048-.015-.048-.015-.048-.017-.047-.018-.046-.019-.046-.021-.045-.021-.045-.023-.044-.024-.043-.025-.043-.026-.042-.027-.042-.028-.041-.029-.04-.03-.039-.032-.039-.032-.038-.033-.037-.035-.037-.035-.035-.036-.035-.037-.034-.038-.034-.039-.032-.039-.031-.041-.031-.041-.03-.042-.028-.043-.028-.044-.027-.044-.026-.045-.025-.046-.024-.047-.023-.047-.022-.048-.021-.049-.02-.049-.018-.05-.018-.05-.017-.051-.015-.052-.014-.052-.013-.052-.012-.053-.011-.054-.01-.054-.008-.055-.007-.055-.006-.055-.004-.056-.004-.056-.002-.057v-.057-.057l.002-.056.004-.057.004-.055.006-.056.007-.055.008-.054.01-.055.011-.053.012-.053.013-.053.014-.052.015-.052.017-.051.018-.05.018-.05.02-.049.021-.049.022-.048.023-.047.024-.046.025-.046.026-.045.027-.045.028-.044.028-.042.03-.043.031-.041.031-.04.032-.04.034-.039.034-.038.035-.037.035-.036.037-.035.037-.034.038-.034.039-.032.039-.031.04-.03.041-.03.042-.028.042-.027.043-.026.043-.025.044-.024.045-.023.045-.021.046-.02.046-.02.047-.018.048-.016.048-.016.048-.014.049-.013.049-.012.05-.01.05-.009.051-.008.051-.006.051-.005.052-.004.052-.002.052-.001h3.745zm-3.787 1.499-.022.001h-.01l-.011.001-.01.001-.01.001-.011.002-.01.001-.01.002-.009.003-.01.002-.01.003-.01.004-.01.003-.01.004-.01.004-.011.005-.01.005-.01.005-.011.005-.01.006-.011.007-.01.007-.011.007-.01.007-.011.008-.011.009-.01.009-.011.009-.011.01-.01.01-.011.011-.01.011-.01.011-.011.012-.01.012-.01.013-.009.013-.01.014-.009.014-.009.014-.009.015-.009.015-.008.015-.008.016-.008.016-.008.016-.007.017-.007.017-.006.018-.006.017-.006.019-.006.018-.005.018-.005.019-.004.02-.004.019-.003.02-.003.02-.003.021-.002.02-.002.021-.001.022-.001.021v.022l.001.044.003.042.005.041.006.04.008.039.01.037.012.037.012.035.014.034.016.032.016.032.018.029.018.029.019.026.02.025.021.024.021.021.021.02.021.018.022.017.021.015.031.019.031.016.031.012.03.01.029.007.031.005.031.002h.022 3.724.021l.011-.001h.011l.01-.001.01-.002.01-.001.01-.002.01-.002.01-.002.01-.003.01-.003.01-.003.01-.004.01-.004.01-.004.01-.004.011-.005.01-.005.01-.006.011-.006.01-.006.011-.007.01-.007.011-.008.011-.008.01-.009.011-.008.011-.01.01-.01.011-.01.01-.01.011-.011.01-.012.01-.012.01-.012.01-.013.01-.013.009-.013.01-.014.009-.015.009-.014.008-.015.009-.016.008-.016.008-.016.007-.016.008-.017.006-.017.007-.017.006-.018.006-.018.005-.018.006-.019.004-.019.005-.019.004-.02.003-.02.003-.02.003-.02.002-.021.002-.021.001-.021.001-.022v-.022-.022l-.001-.021-.001-.022-.002-.021-.002-.02-.003-.021-.003-.02-.003-.02-.004-.019-.005-.02-.004-.019-.006-.018-.005-.019-.006-.018-.006-.017-.007-.018-.006-.017-.008-.016-.007-.017-.008-.016-.008-.016-.009-.015-.008-.015-.009-.015-.009-.014-.01-.014-.009-.014-.01-.013-.01-.013-.01-.012-.01-.012-.01-.011-.011-.011-.01-.011-.011-.01-.01-.01-.011-.009-.011-.009-.01-.008-.011-.009-.011-.007-.01-.007-.011-.007-.01-.007-.011-.006-.01-.005-.01-.005-.011-.005-.01-.005-.01-.004-.01-.004-.01-.003-.01-.004-.01-.003-.01-.002-.01-.003-.01-.002-.01-.001-.01-.002-.01-.001-.01-.001-.011-.001h-.011l-.021-.001z" fill="#757575"/><path d="m104.022 27.188.052.002.051.003.052.005.051.007.05.007.051.009.049.011.05.011.049.013.048.015.048.015.047.017.047.018.047.019.045.02.046.022.044.023.044.024.044.024.043.027.042.027.041.028.041.029.04.03.04.032.039.032.038.033.037.035.036.035.036.036.035.037.034.038.033.039.033.039.031.041.031.041.029.042.029.043.028.044.027.044.026.045.025.046.024.047.023.047.022.048.02.048.02.05.019.049.018.051.016.051.016.051.014.053.013.052.012.053.011.054.009.054.009.055.007.055.006.055.004.056.003.056.002.057.001.057-.001.057-.002.056-.003.057-.004.055-.006.056-.007.055-.009.054-.009.054-.011.054-.012.053-.013.053-.014.052-.016.052-.016.051-.018.05-.019.05-.02.049-.02.049-.022.048-.023.047-.024.046-.025.046-.026.045-.027.045-.028.044-.029.042-.029.043-.031.041-.031.04-.033.04-.033.039-.034.038-.035.037-.036.036-.036.035-.037.034-.038.033-.039.033-.04.031-.04.03-.041.03-.041.028-.042.027-.043.026-.044.025-.044.024-.044.022-.046.022-.045.02-.047.02-.047.018-.047.016-.048.016-.048.014-.049.013-.05.012-.049.01-.051.009-.05.008-.051.006-.052.005-.051.004-.052.002-.053.001h-3.745l-.052-.001-.052-.002-.052-.004-.051-.005-.051-.006-.051-.008-.05-.009-.05-.01-.049-.012-.049-.013-.048-.014-.048-.016-.048-.016-.047-.018-.046-.02-.046-.02-.045-.022-.045-.022-.044-.024-.043-.025-.043-.026-.042-.027-.042-.028-.041-.03-.04-.03-.039-.031-.039-.033-.038-.033-.037-.034-.037-.035-.035-.036-.035-.037-.034-.038-.034-.039-.032-.04-.031-.04-.031-.041-.03-.043-.028-.042-.028-.044-.027-.045-.026-.045-.025-.046-.024-.046-.023-.047-.022-.048-.021-.049-.02-.049-.018-.05-.018-.05-.017-.051-.015-.052-.014-.052-.013-.053-.012-.053-.011-.054-.01-.054-.008-.054-.007-.055-.006-.056-.004-.055-.004-.057-.002-.056v-.057-.057l.002-.057.004-.056.004-.056.006-.055.007-.055.008-.055.01-.054.011-.054.012-.053.013-.052.014-.053.015-.051.017-.051.018-.051.018-.049.02-.05.021-.048.022-.048.023-.047.024-.047.025-.046.026-.045.027-.044.028-.044.028-.043.03-.042.031-.041.031-.041.032-.039.034-.039.034-.038.035-.037.035-.036.037-.035.037-.035.038-.033.039-.032.039-.032.04-.03.041-.029.042-.028.042-.027.043-.027.043-.024.044-.024.045-.023.045-.022.046-.02.046-.019.047-.018.048-.017.048-.015.048-.015.049-.013.049-.011.05-.011.05-.009.051-.007.051-.007.051-.005.052-.003.052-.002.052-.001h3.745zm-3.787 1.499h-.022l-.01.001h-.011l-.01.001-.01.002-.011.001-.01.002-.01.002-.009.002-.01.003-.01.003-.01.003-.01.004-.01.004-.01.004-.011.004-.01.005-.01.005-.011.006-.01.006-.011.006-.01.007-.011.007-.01.008-.011.008-.011.009-.01.008-.011.01-.011.009-.01.011-.011.01-.01.011-.01.012-.011.012-.01.012-.01.013-.009.013-.01.013-.009.014-.009.015-.009.014-.009.015-.008.016-.008.016-.008.016-.008.016-.007.017-.007.017-.006.017-.006.018-.006.018-.006.018-.005.019-.005.019-.004.019-.004.02-.003.02-.003.02-.003.02-.002.021-.002.021-.001.021-.001.022v.022l.001.043.003.043.005.041.006.04.008.038.01.038.012.036.012.036.014.033.016.033.016.031.018.03.018.028.019.027.02.025.021.023.021.022.021.02.021.018.022.016.021.015.031.019.031.016.031.013.03.009.029.008.031.004.031.002.022.001h3.724l.021-.001h.011l.011-.001.01-.001.01-.001.01-.002.01-.001.01-.003.01-.002.01-.002.01-.003.01-.004.01-.003.01-.004.01-.004.01-.005.011-.005.01-.005.01-.005.011-.007.01-.006.011-.007.01-.007.011-.008.011-.008.01-.008.011-.009.011-.009.01-.01.011-.01.01-.011.011-.011.01-.011.01-.012.01-.012.01-.013.01-.013.009-.014.01-.014.009-.014.009-.015.008-.015.009-.015.008-.016.008-.016.007-.017.008-.016.006-.017.007-.018.006-.018.006-.018.005-.018.006-.019.004-.019.005-.019.004-.019.003-.02.003-.02.003-.021.002-.02.002-.021.001-.022.001-.021v-.022-.022l-.001-.022-.001-.021-.002-.021-.002-.021-.003-.02-.003-.02-.003-.02-.004-.02-.005-.019-.004-.019-.006-.019-.005-.018-.006-.018-.006-.018-.007-.017-.006-.017-.008-.017-.007-.017-.008-.016-.008-.015-.009-.016-.008-.015-.009-.014-.009-.015-.01-.014-.009-.013-.01-.013-.01-.013-.01-.012-.01-.012-.01-.012-.011-.011-.01-.01-.011-.011-.01-.009-.011-.01-.011-.008-.01-.009-.011-.008-.011-.008-.01-.007-.011-.007-.01-.006-.011-.006-.01-.006-.01-.005-.011-.005-.01-.004-.01-.004-.01-.004-.01-.004-.01-.003-.01-.003-.01-.003-.01-.002-.01-.002-.01-.002-.01-.001-.01-.002-.01-.001h-.011l-.011-.001h-.021z" fill="#757575"/><path d="m99.731 24.317c.283 0 .512.25.512.557v15.363c0 .307-.229.557-.512.557h-1.47-.067c-4.193-.039-7.581-3.713-7.581-8.239 0-4.525 3.388-8.199 7.581-8.238zm-1.537 2.06c-3.137.039-5.669 2.79-5.669 6.178 0 3.389 2.532 6.14 5.669 6.179z" fill="#757575"/><path d="m76.394 33.258c0 .388.289.703.646.703h4.181c.357 0 .646-.315.646-.703v-1.405c0-.388-.289-.703-.646-.703h-4.181c-.357 0-.646.315-.646.703z" fill="none" stroke="#757575" stroke-width="1.5"/><g fill="#757575"><path d="m67.828 27.188.052.002.052.003.051.005.051.007.051.007.05.009.05.011.049.011.049.013.048.015.048.015.048.017.047.018.046.019.046.02.045.022.045.023.044.024.043.024.043.027.042.027.042.028.041.029.04.03.039.032.039.032.038.033.037.035.037.035.035.036.035.037.034.038.034.039.032.039.031.041.031.041.03.042.028.043.028.044.027.044.026.045.025.046.024.047.023.047.022.048.021.048.02.05.018.049.018.051.017.051.015.051.014.053.013.052.012.053.011.054.01.054.008.055.007.055.006.055.004.056.004.056.002.057v.057.057l-.002.056-.004.057-.004.055-.006.056-.007.055-.008.054-.01.054-.011.054-.012.053-.013.053-.014.052-.015.052-.017.051-.018.05-.018.05-.02.049-.021.049-.022.048-.023.047-.024.046-.025.046-.026.045-.027.045-.028.044-.028.042-.03.043-.031.041-.031.04-.032.04-.034.039-.034.038-.035.037-.035.036-.037.035-.037.034-.038.033-.039.033-.039.031-.04.03-.041.03-.042.028-.042.027-.043.026-.043.025-.044.024-.045.022-.045.022-.046.02-.046.02-.047.018-.048.016-.048.016-.048.014-.049.013-.049.012-.05.01-.05.009-.051.008-.051.006-.051.005-.052.004-.052.002-.052.001h-3.745l-.053-.001-.052-.002-.051-.004-.052-.005-.051-.006-.05-.008-.051-.009-.049-.01-.05-.012-.049-.013-.048-.014-.048-.016-.047-.016-.047-.018-.047-.02-.045-.02-.046-.022-.044-.022-.044-.024-.044-.025-.043-.026-.042-.027-.041-.028-.041-.03-.04-.03-.04-.031-.039-.033-.038-.033-.037-.034-.036-.035-.036-.036-.035-.037-.034-.038-.033-.039-.033-.04-.031-.04-.031-.041-.029-.043-.029-.042-.028-.044-.027-.045-.026-.045-.025-.046-.024-.046-.023-.047-.022-.048-.02-.049-.02-.049-.019-.05-.018-.05-.016-.051-.016-.052-.014-.052-.013-.053-.012-.053-.011-.054-.009-.054-.009-.054-.007-.055-.006-.056-.004-.055-.003-.057-.002-.056-.001-.057.001-.057.002-.057.003-.056.004-.056.006-.055.007-.055.009-.055.009-.054.011-.054.012-.053.013-.052.014-.053.016-.051.016-.051.018-.051.019-.049.02-.05.02-.048.022-.048.023-.047.024-.047.025-.046.026-.045.027-.044.028-.044.029-.043.029-.042.031-.041.031-.041.033-.039.033-.039.034-.038.035-.037.036-.036.036-.035.037-.035.038-.033.039-.032.04-.032.04-.03.041-.029.041-.028.042-.027.043-.027.044-.024.044-.024.044-.023.046-.022.045-.02.047-.019.047-.018.047-.017.048-.015.048-.015.049-.013.05-.011.049-.011.051-.009.05-.007.051-.007.052-.005.051-.003.052-.002.053-.001h3.745zm-3.787 1.499h-.021l-.011.001h-.011l-.01.001-.01.002-.01.001-.01.002-.01.002-.01.002-.01.003-.01.003-.01.003-.01.004-.01.004-.01.004-.01.004-.011.005-.01.005-.01.006-.011.006-.01.006-.011.007-.01.007-.011.008-.011.008-.01.009-.011.008-.011.01-.01.01-.011.01-.01.01-.011.011-.01.012-.01.012-.01.012-.01.013-.01.013-.009.013-.01.014-.009.015-.009.014-.008.015-.009.016-.008.015-.008.017-.007.016-.008.017-.006.017-.007.017-.006.018-.006.018-.005.018-.006.019-.004.019-.005.019-.004.02-.003.02-.003.02-.003.02-.002.021-.002.021-.001.021-.001.022v.022.022l.001.021.001.022.002.021.002.02.003.021.003.02.003.02.004.019.005.019.004.019.006.019.005.018.006.018.006.018.007.018.006.017.008.016.007.017.008.016.008.016.009.015.008.015.009.015.009.014.01.014.009.014.01.013.01.012.01.013.01.012.01.011.011.011.01.011.011.01.01.01.011.009.011.009.01.008.011.008.011.008.01.007.011.007.01.006.011.006.01.006.01.005.011.005.01.005.01.004.01.004.01.003.01.004.01.002.01.003.01.002.01.003.01.001.01.002.01.001.01.001.011.001h.011l.021.001h3.724l.022-.001h.01l.011-.001.01-.001.01-.001.011-.002.01-.001.01-.003.009-.002.01-.003.01-.002.01-.004.01-.003.01-.004.01-.004.011-.005.01-.005.01-.005.011-.006.01-.006.011-.006.01-.007.011-.007.01-.008.011-.008.011-.008.01-.009.011-.009.011-.01.01-.01.011-.011.01-.011.01-.011.011-.012.01-.013.01-.012.009-.013.01-.014.009-.014.009-.014.009-.015.009-.015.008-.015.008-.016.008-.016.008-.017.007-.016.007-.017.006-.018.006-.018.006-.018.006-.018.005-.019.005-.019.004-.019.004-.019.003-.02.003-.02.003-.021.002-.02.002-.021.001-.022.001-.021v-.022l-.001-.044-.003-.042-.005-.041-.006-.04-.008-.039-.01-.038-.012-.036-.012-.035-.014-.034-.016-.033-.016-.031-.018-.029-.018-.029-.019-.026-.02-.025-.021-.024-.021-.021-.021-.02-.021-.018-.022-.017-.021-.015-.031-.019-.031-.016-.031-.012-.03-.01-.029-.007-.031-.005-.031-.002h-.022z"/><path d="m67.828 33.509.052.002.052.004.051.005.051.006.051.008.05.009.05.01.049.012.049.013.048.014.048.016.048.016.047.018.046.02.046.02.045.021.045.023.044.024.043.025.043.026.042.027.042.028.041.03.04.03.039.031.039.032.038.034.037.034.037.035.035.036.035.037.034.038.034.039.032.04.031.04.031.041.03.043.028.042.028.044.027.045.026.045.025.046.024.046.023.047.022.048.021.049.02.049.018.05.018.05.017.051.015.052.014.052.013.053.012.053.011.053.01.055.008.054.007.055.006.056.004.055.004.057.002.056v.057l-.001.067-.002.066-.005.066-.006.065-.008.065-.01.064-.011.063-.013.063-.015.062-.016.061-.018.06-.019.06-.021.059-.022.058-.024.058-.025.056-.027.056-.028.054-.03.054-.03.052-.033.052-.033.051-.035.049-.036.048-.037.048-.038.046-.039.045-.041.043-.042.043-.043.041-.043.04-.045.038-.033.027-.032.025-.034.025-.033.025-.035.023-.034.023-.036.022-.035.022-.036.02-.037.02-.037.019-.037.018-.037.018-.038.017-.039.016-.039.015-.039.014-.039.013-.04.013-.04.011-.041.011-.04.01-.042.009-.041.008-.042.007-.042.007-.042.005-.042.004-.043.004-.043.002-.043.002h-.043-3.745l-.053-.001-.052-.002-.051-.003-.052-.005-.051-.007-.05-.007-.051-.009-.049-.011-.05-.012-.049-.012-.048-.015-.048-.015-.047-.017-.047-.018-.047-.019-.045-.021-.046-.021-.044-.023-.044-.024-.044-.025-.043-.026-.042-.027-.041-.028-.041-.029-.04-.03-.04-.032-.039-.032-.038-.033-.037-.035-.036-.035-.036-.036-.035-.037-.034-.038-.033-.039-.033-.039-.031-.041-.031-.041-.029-.042-.029-.043-.028-.044-.027-.044-.026-.045-.025-.046-.024-.047-.023-.047-.022-.048-.02-.049-.02-.049-.019-.05-.018-.05-.016-.051-.016-.052-.014-.052-.013-.052-.012-.053-.011-.054-.009-.054-.009-.055-.007-.055-.006-.055-.004-.056-.003-.056-.002-.057-.001-.057.001-.057.002-.056.003-.057.004-.055.006-.056.007-.055.009-.054.009-.055.011-.053.012-.053.013-.053.014-.052.016-.052.016-.051.018-.05.019-.05.02-.049.02-.049.022-.048.023-.047.024-.046.025-.046.026-.045.027-.045.028-.044.029-.042.029-.043.031-.041.031-.04.033-.04.033-.039.034-.038.035-.037.036-.036.036-.035.037-.034.038-.034.039-.032.04-.031.04-.03.041-.03.041-.028.042-.027.043-.026.044-.025.044-.024.044-.023.046-.021.045-.02.047-.02.047-.018.047-.016.048-.016.048-.014.049-.013.05-.012.049-.01.051-.009.05-.008.051-.006.052-.005.051-.004.052-.002.053-.001h3.745zm-3.787 1.499-.021.001h-.011l-.011.001-.01.001-.01.001-.01.002-.01.001-.01.002-.01.003-.01.002-.01.003-.01.004-.01.003-.01.004-.01.004-.01.005-.011.005-.01.005-.01.005-.011.006-.01.007-.011.007-.01.007-.011.007-.011.009-.01.008-.011.009-.011.009-.01.01-.011.01-.01.011-.011.011-.01.011-.01.012-.01.012-.01.013-.01.013-.009.014-.01.014-.009.014-.009.015-.008.015-.009.015-.008.016-.008.016-.007.016-.008.017-.006.017-.007.018-.006.017-.006.018-.005.019-.006.018-.004.019-.005.02-.004.019-.003.02-.003.02-.003.021-.002.02-.002.021-.001.022-.001.021v.022.022l.001.022.001.021.002.021.002.021.003.02.003.02.003.02.004.02.005.019.004.019.006.018.005.019.006.018.006.018.007.017.006.017.008.017.007.016.008.016.008.016.009.016.008.015.009.014.009.015.01.014.009.013.01.013.01.013.01.012.01.012.01.012.011.011.01.01.011.01.01.01.011.01.011.008.01.009.011.008.011.008.01.007.011.007.01.006.011.006.01.006.01.005.011.005.01.004.01.004.01.004.01.004.01.003.01.003.01.003.01.002.01.002.01.002.01.001.01.002.01.001h.011l.011.001h.021 3.726.018.009l.008-.001.009-.001.009-.001.008-.001.009-.001.008-.001.008-.002.008-.002.009-.002.008-.002.008-.002.008-.003.009-.003.008-.003.008-.003.009-.003.008-.004.008-.004.009-.004.009-.005.008-.004.009-.005.008-.005.009-.006.009-.006.009-.006.009-.006.008-.007.009-.007.007-.005.015-.013.012-.011.012-.012.013-.012.012-.014.012-.013.012-.014.011-.015.012-.016.011-.016.011-.016.01-.017.011-.017.009-.018.01-.019.009-.019.009-.019.008-.02.008-.02.007-.021.007-.021.006-.022.006-.022.005-.022.005-.023.004-.023.004-.024.003-.024.002-.024.002-.025.001-.025v-.027l-.001-.042-.003-.043-.005-.041-.006-.04-.008-.039-.01-.037-.012-.037-.012-.035-.014-.034-.016-.032-.016-.031-.018-.03-.018-.028-.019-.027-.02-.025-.021-.023-.021-.022-.021-.02-.021-.018-.022-.017-.021-.014-.031-.02-.031-.015-.031-.013-.03-.01-.029-.007-.031-.004-.031-.002-.022-.001h-3.724z"/><path d="m69.739 24.317h.067c4.193.039 7.581 3.713 7.581 8.238 0 4.526-3.388 8.2-7.581 8.239h-.067-1.47c-.283 0-.512-.25-.512-.557v-15.363c0-.307.229-.557.512-.557zm.067 2.06v12.357c3.137-.039 5.669-2.79 5.669-6.179 0-3.388-2.532-6.139-5.669-6.178z"/><path d="m86.829 32.079c0-.263-.261-.476-.581-.476h-4.492c-.321 0-.581.213-.581.476v.953c0 .263.26.476.581.476h4.492c.32 0 .581-.213.581-.476z"/></g><path d="m169.351 14.261c-2.002-2.942-5.332-6.303-8.676-8.479-6.947-4.682-14.993-6.344-22.11-5.619-7.422.788-13.777 3.54-19.002 8.13-4.84 4.255-8.036 9.457-9.444 14.418-1.424 4.96-1.234 9.553-.726 13.012.537 3.51 2.313 7.927 2.313 7.927.363.847.866 1.191 1.128 1.335 1.298.698 3.429.084 5.065-1.724.082-.111.126-.266.082-.396-.456-1.729-.621-3.031-.783-4.038-.372-1.991-.537-5.329-.289-8.414.124-1.67.454-3.456 1.031-5.329 1.117-3.7 3.471-7.562 7.15-10.772 3.963-3.456 9.045-5.591 13.877-6.143 1.694-.2 4.917-.393 8.797.549.827.203 4.38 1.115 8.181 3.649 2.766 1.851 4.994 4.135 6.528 6.395 1.562 2.157 3.259 5.794 3.757 8.458.704 3.031.704 6.243.203 9.372-.618 3.134-1.735 6.181-3.47 8.864-1.196 2.078-3.677 4.825-6.608 6.887-2.643 1.83-5.66 3.151-8.756 3.882-1.568.365-3.141.598-4.752.649-1.433.043-3.333 0-4.667-.222-1.983-.311-2.395-.809-2.849-1.486 0 0-.316-.487-.404-1.791.03-11.922.025-8.74.025-14.929 0-1.749-.058-3.334-.042-4.774.083-2.363.286-3.987 2.002-5.746 1.241-1.297 2.976-2.079 4.887-2.079.58 0 2.58.027 4.337 1.465 1.883 1.548 2.2 3.664 2.274 4.23.429 3.31-1.793 5.775-2.645 6.4-1.056.78-2.005 1.159-2.646 1.381-1.364.449-2.863.579-4.21.492-.206-.013-.393.119-.435.322l-.453 2.317c-.443 1.759.55 2.403 1.127 2.631 1.845.56 3.482.793 5.42.649 2.973-.205 5.904-1.358 8.393-3.643 2.118-1.981 3.325-4.425 3.737-7.158.413-3.034-.123-6.301-1.529-9.067-1.545-3.05-4.213-5.597-7.727-6.99-3.55-1.375-6.374-1.424-10.015-.509l-.042.013c-2.365.801-4.389 1.789-6.495 3.93-1.444 1.478-2.626 3.267-3.347 5.286-.715 2.035-.907 3.553-.94 5.913-.044 1.749.041 3.373.041 4.894v10.016c0 3.205-.11 3.759 0 5.408.06 1.093.214 2.33.701 3.659.501 1.464 1.551 2.966 2.272 3.659 1.009 1.058 2.293 1.908 3.555 2.436 2.891 1.264 6.815 1.464 9.997 1.342 2.106-.078 4.224-.365 6.3-.85 4.152-.971 8.14-2.739 11.646-5.191 3.759-2.606 7.026-6.162 8.83-9.183 2.313-3.588 3.809-7.616 4.587-11.754.701-4.146.668-8.398-.272-12.482-.743-3.789-2.725-7.946-5.013-11.302l.104.1z" fill="#2480e6" fill-rule="nonzero"/><path d="m55.201 13.666-22.349-12.836c-2.011-1.107-5.14-1.107-7.151 0l-22.349 12.836c-1.788 1.328-3.352 3.983-3.352 6.196v25.451c0 2.213 1.564 4.868 3.576 5.975l22.348 12.836c2.012 1.106 5.14 1.106 7.152 0l22.348-12.836c2.012-1.107 3.576-3.762 3.576-5.975v-25.451c-.223-2.213-1.788-4.868-3.799-6.196zm-6.034 13.942h-2.235v-3.983c0-2.877-2.235-3.984-6.705-3.984h-.223c-10.727 0-9.834-3.984-10.057-5.533h-.224c-.223 1.549.671 5.533-10.056 5.533h-.224c-4.47 0-6.704.885-6.704 3.984v3.098l36.428 10.401v4.426c0 4.205-2.012 6.64-9.163 6.64h-.447c-5.364 0-8.94 1.106-8.94 5.532h-2.234c0-4.204-3.353-5.532-8.94-5.532-6.928 0-9.163-2.435-9.163-6.64v-3.762h2.235v3.984c0 2.877 2.235 3.983 6.705 3.983h.223c10.727 0 9.834 3.984 10.057 5.533h.223c.224-1.549-.67-5.533 10.057-5.533h.447c4.47 0 6.705-.885 6.705-3.983v-2.213l-36.652-10.623v-5.09c0-4.205 2.012-6.639 9.163-6.639h.447c5.587 0 8.94-1.107 8.94-5.533h2.234c0 4.205 3.353 5.533 8.94 5.533h.223c6.928 0 9.163 2.434 9.163 6.639z" fill="#f6e767" fill-rule="nonzero"/></svg>